<svg xmlns="http://www.w3.org/2000/svg" version="1.1" xmlns:xlink="http://www.w3.org/1999/xlink" viewBox="0 0 200 200" width="200" height="200"><rect width="200" height="200" fill="url('#gradient')"></rect><defs><linearGradient id="gradient" gradientTransform="rotate(45 0.5 0.5)"><stop offset="0%" stop-color="#000000"></stop><stop offset="100%" stop-color="#000000"></stop></linearGradient></defs><g><g fill="#9e68ff" transform="matrix(5.963320295523685,0,0,5.963320295523685,26.616770161374248,142.40346577634816)" stroke="#15374d" stroke-width="0"><path d="M10.03-8.30L10.03-5.66L4.50-5.66L4.50 0L1.07 0L1.07-14.22L10.59-14.22L10.59-11.57L4.50-11.57L4.50-8.30L10.03-8.30ZM20.11-4.81L23.52-4.81Q23.45-3.33 22.71-2.19Q21.98-1.05 20.66-0.43Q19.34 0.20 17.64 0.20L17.64 0.20Q14.83 0.20 13.22-1.63Q11.61-3.46 11.61-6.79L11.61-6.79L11.61-7.49Q11.61-9.58 12.34-11.15Q13.07-12.71 14.43-13.57Q15.80-14.42 17.60-14.42L17.60-14.42Q20.19-14.42 21.76-13.06Q23.33-11.70 23.54-9.31L23.54-9.31L20.13-9.31Q20.09-10.61 19.47-11.17Q18.86-11.74 17.60-11.74L17.60-11.74Q16.32-11.74 15.72-10.78Q15.13-9.82 15.10-7.72L15.10-7.72L15.10-6.72Q15.10-4.44 15.67-3.47Q16.24-2.49 17.64-2.49L17.64-2.49Q18.82-2.49 19.44-3.05Q20.07-3.60 20.11-4.81L20.11-4.81Z"></path></g></g><style>@media (prefers-color-scheme: light) { :root { filter: none; } }
@media (prefers-color-scheme: dark) { :root { filter: none; } }
</style></svg>